<svg xmlns="http://www.w3.org/2000/svg" viewBox="0 0 64 64" fill="none">
  <circle cx="24" cy="24" r="10" fill="#fbbf24"/>
  <path d="M24 8v4M24 36v4M8 24h4M36 24h4M12.2 12.2l2.8 2.8M33 33l2.8 2.8M12.2 35.8l2.8-2.8M33 15l2.8-2.8" stroke="#fbbf24" stroke-width="3" stroke-linecap="round"/>
  <path d="M24 28c1.1-4.6 5.5-8 10.6-7.6 5.2.4 9.2 4.9 9.2 10.1v.5c3.8.4 6.7 3.6 6.7 7.5 0 4.1-3.4 7.5-7.5 7.5H22c-4.9 0-8.8-4.1-8-9.1.6-3.8 3.8-6.5 7.6-6.9.8-.1 1.6 0 2.4.1z" fill="#cbd5e1" stroke="#94a3b8" stroke-width="2" stroke-linejoin="round"/>
</svg>
